# xmcd
#
# Track frame offsets:
#	150
#	15536
#	31116
#	46883
#	64970
#	84062
#	101077
#	118680
#	135668
#	154530
#	168593
#	183532
#
# Disc length: 2692 seconds
#
# Revision: 1
# Processed by: cddbd v1.5.2PL0 Copyright (c) Steve Scherf et al.
# Submitted via: audiograbber 1.83.01
#
DISCID=910a820c
DTITLE=Billy Ray Cyrus - ICON
DYEAR=2011
DGENRE=Country
TTITLE0=Achy Breaky Heart
TTITLE1=She's not Cryin' anymore
TTITLE2=Wher'm I gonna live
TTITLE3=In the heart of a woman
TTITLE4=Three little words
TTITLE5=Could've been me
TTITLE6=Storm in the Heartland
TTITLE7=Somebody new
TTITLE8=Harper valley P.T.A.
TTITLE9=Words by heart
TTITLE10=Truth is I lied
TTITLE11=Some gave all
EXTD=
EXTT0=
EXTT1=
EXTT2=
EXTT3=
EXTT4=
EXTT5=
EXTT6=
EXTT7=
EXTT8=
EXTT9=
EXTT10=
EXTT11=
PLAYORDER=
